<svg xmlns="http://www.w3.org/2000/svg" width="24" height="24" viewBox="0 0 24 24"><defs><style>.a{fill:none;}.b{fill:#2c2c2c;stroke:rgba(0,0,0,0);stroke-miterlimit:10;}</style></defs><rect class="a" width="24" height="24"/><g transform="translate(4 3.5)"><path class="b" d="M14.174,16.918,11.37,6.451A.891.891,0,0,1,12,5.36l2.25-.6h0a.888.888,0,0,1,1.088.628l2.8,10.466a.892.892,0,0,1-.627,1.092l-2.25.6a.889.889,0,0,1-1.089-.627Zm-7.3.542a.8.8,0,0,1-.8-.8V.8a.8.8,0,0,1,.8-.8H9.378a.8.8,0,0,1,.8.8V16.66a.8.8,0,0,1-.8.8Zm-6.07,0a.8.8,0,0,1-.8-.8V5.641a.8.8,0,0,1,.8-.8H3.308a.8.8,0,0,1,.8.8V16.66a.8.8,0,0,1-.8.8Z" transform="translate(0 0)"/></g></svg>