<svg xmlns="http://www.w3.org/2000/svg" width="24" height="24" viewBox="0 0 24 24"><defs><style>.a{fill:none;}.b,.d,.f{fill:#2c2c2c;}.b{stroke:rgba(0,0,0,0);stroke-miterlimit:10;}.c{fill:#070203;}.e,.f{stroke:none;}</style></defs><rect class="a" width="24" height="24"/><g transform="translate(2.074 4.926)"><path class="b" d="M11.69,14.294H8.334a1.048,1.048,0,0,0-.312-.764,1.508,1.508,0,0,0-1.084-.357l-6.219,0H.711a.713.713,0,0,1-.711-.7V.7A.714.714,0,0,1,.711,0H.719L19.133,0h.008a.713.713,0,0,1,.711.7V12.469a.714.714,0,0,1-.712.7H13.085c-1.028,0-1.395.579-1.395,1.121ZM1.652,1.253h0a.3.3,0,0,0-.215.089.292.292,0,0,0-.086.209v10a.3.3,0,0,0,0,.048.3.3,0,0,0,.295.254H9.944V1.254H1.652Z"/><g transform="translate(0.119 0.041)"><g class="c" transform="translate(-145.994 -614.44)"><path class="e" d="M156.444,627.464H146.57a.571.571,0,0,1-.576-.565V615.006a.572.572,0,0,1,.575-.566h9.875a.214.214,0,0,1,.216.213v12.6A.214.214,0,0,1,156.444,627.464Zm-9.874-12.6a.143.143,0,0,0-.144.141V626.9a.143.143,0,0,0,.143.141h9.658V614.865Z"/><path class="f" d="M 156.4443206787109 627.464111328125 L 146.5698089599609 627.464111328125 C 146.2522888183594 627.464111328125 145.9939727783203 627.21044921875 145.9939727783203 626.8986206054688 L 145.9939727783203 615.0060424804688 C 145.9935150146484 614.6950073242188 146.2514038085938 614.4407348632812 146.5689544677734 614.4400024414062 L 146.5698089599609 614.4400024414062 L 156.4443206787109 614.4400024414062 C 156.5641326904297 614.4400024414062 156.6606292724609 614.5352172851562 156.6606292724609 614.6525268554688 L 156.6606292724609 627.2516479492188 C 156.6606292724609 627.3690185546875 156.5641326904297 627.464111328125 156.4443206787109 627.464111328125 Z M 146.5702362060547 614.8650512695312 C 146.4910583496094 614.8650512695312 146.4266204833984 614.9285278320312 146.4266204833984 615.0057373046875 L 146.4266204833984 626.89794921875 C 146.4266204833984 626.9755859375 146.4910583496094 627.0392456054688 146.5698089599609 627.0392456054688 L 156.2279510498047 627.0392456054688 L 156.2279510498047 614.8650512695312 L 146.5702362060547 614.8650512695312 Z"/></g></g></g><rect class="d" width="5.333" height="1.333" transform="translate(5.037 8.185)"/><rect class="d" width="5.333" height="1.333" transform="translate(5.037 10.852)"/><rect class="d" width="3.556" height="1.333" transform="translate(5.037 13.519)"/></svg>