<svg xmlns="http://www.w3.org/2000/svg" width="72.522" height="16.5" viewBox="0 0 72.522 16.5"><defs><style>.a{stroke:#000;stroke-width:0.5px;}</style></defs><path class="a" d="M9.585-10.947A5.347,5.347,0,0,0,8.14-15.14a4.212,4.212,0,0,0-2.983-1.015,3.926,3.926,0,0,0-2.75.9V-19.4H9.212v-2.008H.263v8.585H2.43a2.243,2.243,0,0,1,2.354-1.412c1.911,0,2.424,1.412,2.424,3.288a3.652,3.652,0,0,1-.792,2.759,2.471,2.471,0,0,1-1.725.618A2.219,2.219,0,0,1,2.267-9.755H-.11a4.352,4.352,0,0,0,1.259,3A5.151,5.151,0,0,0,4.691-5.54a4.926,4.926,0,0,0,3.5-1.236C9.4-7.923,9.585-9.27,9.585-10.947Zm16.718.772A4,4,0,0,0,24.952-13.4a5.656,5.656,0,0,0-3.1-1.17l-1.888-.265a3.817,3.817,0,0,1-1.864-.728,1.82,1.82,0,0,1-.629-1.457c0-1.39,1.072-2.45,3.03-2.45a5.04,5.04,0,0,1,3.612,1.214l1.608-1.5A7.136,7.136,0,0,0,20.57-21.54c-3.449,0-5.547,1.876-5.547,4.612a3.8,3.8,0,0,0,1.212,3,5.843,5.843,0,0,0,3.146,1.258l1.958.265a2.97,2.97,0,0,1,1.818.662,2.054,2.054,0,0,1,.653,1.633c0,1.523-1.259,2.406-3.426,2.406a5.652,5.652,0,0,1-4.242-1.5L14.464-7.637a7.752,7.752,0,0,0,5.873,2.074C23.81-5.562,26.3-7.283,26.3-10.174Zm14.729-9.092v-2.141H29.38v2.141h4.568V-5.694h2.517V-19.267ZM55.669-5.694V-7.835H47.582v-4.723h6.9v-2.119h-6.9v-4.59h8.087v-2.141h-10.6V-5.694ZM71.89-16.641c0-2.737-2.074-4.767-5.314-4.767H60.284V-5.694H62.8v-6.179h3.776C69.816-11.874,71.89-13.9,71.89-16.641Zm-2.517,0c0,1.655-1.189,2.6-2.937,2.6H62.8v-5.23h3.636C68.184-19.267,69.373-18.3,69.373-16.641Z" transform="translate(0.382 21.79)"/></svg>