<svg xmlns="http://www.w3.org/2000/svg" width="24" height="24" viewBox="0 0 24 24"><defs><style>.a{fill:none;}.b{fill:#2c2c2c;}</style></defs><rect class="a" width="24" height="24"/><g transform="translate(1.481 4.444)"><path class="b" d="M150.74,124.284l-2.748-10.067a1.637,1.637,0,0,0-1.577-1.2H131.4a1.634,1.634,0,0,0-1.635,1.633h0v10.066a1.62,1.62,0,0,0,1.086,1.522,3.327,3.327,0,0,1,6.65.111h2.985a3.331,3.331,0,0,1,6.661,0h2.018a1.635,1.635,0,0,0,1.636-1.633A1.651,1.651,0,0,0,150.74,124.284Zm-3.914-3.884a.677.677,0,0,1-.181.024h-2.132a.686.686,0,0,1-.686-.686h0v-4.221a.686.686,0,0,1,.686-.685h.98a.686.686,0,0,1,.662.5l1.152,4.222A.686.686,0,0,1,146.826,120.4Z" transform="translate(-129.762 -113.014)"/><circle class="b" cx="2.375" cy="2.375" r="2.375" transform="translate(11.769 11.056)"/><circle class="b" cx="2.375" cy="2.375" r="2.375" transform="translate(2.019 11.056)"/></g></svg>