<svg xmlns="http://www.w3.org/2000/svg" width="20" height="20" viewBox="0 0 20 20"><defs><style>.a{fill:#fff;}.b{fill:#00475a;}</style></defs><g transform="translate(-7.367 -8.4)"><g transform="translate(7.367 8.4)"><path class="a" d="M36.1,27.714c0-4.7-4.485-8.514-10-8.514s-10,3.813-10,8.514c0,4.2,3.547,7.723,8.352,8.394.32.072.778.216.87.528a2.252,2.252,0,0,1,.023.959s-.114.743-.137.887c-.046.264-.206,1.031.87.576a31.926,31.926,0,0,0,7.849-6.092h0A7.693,7.693,0,0,0,36.1,27.714" transform="translate(-16.1 -19.2)"/><g transform="translate(3.249 6.212)"><path class="b" d="M47.815,45.3h-.709a.206.206,0,0,0-.206.192v4.557a.19.19,0,0,0,.206.192h.709a.206.206,0,0,0,.206-.192V45.492a.206.206,0,0,0-.206-.192" transform="translate(-43.101 -45.252)"/><path class="b" d="M58.967,45.3h-.687a.206.206,0,0,0-.206.192V48.2l-1.991-2.83a.023.023,0,0,0-.023-.024h0l-.023-.024h-.732a.206.206,0,0,0-.206.192v4.557a.19.19,0,0,0,.206.192h.709a.206.206,0,0,0,.206-.192v-2.71l1.991,2.83c.023.024.023.048.046.048h.709a.206.206,0,0,0,.206-.192V45.492a.206.206,0,0,0-.206-.192" transform="translate(-49.425 -45.252)"/><path class="b" d="M33.321,49.037h-1.9V45.416a.21.21,0,0,0-.206-.216h-.709a.21.21,0,0,0-.206.216v4.557h0a.352.352,0,0,0,.046.144h0a.315.315,0,0,0,.137.048h2.792a.193.193,0,0,0,.183-.216v-.743c.069-.072-.023-.168-.137-.168" transform="translate(-30.3 -45.176)"/><path class="b" d="M78.875,46.275a.193.193,0,0,0,.183-.216v-.743a.208.208,0,0,0-.183-.216H76.083a.315.315,0,0,0-.137.048h0a.352.352,0,0,0-.046.144h0v4.557h0a.352.352,0,0,0,.046.144h0a.315.315,0,0,0,.137.048h2.792a.193.193,0,0,0,.183-.216v-.743a.208.208,0,0,0-.183-.216h-1.9v-.672h1.9a.193.193,0,0,0,.183-.216v-.743a.208.208,0,0,0-.183-.216h-1.9v-.743Z" transform="translate(-65.465 -45.1)"/></g></g></g></svg>