<svg xmlns="http://www.w3.org/2000/svg" width="32" height="18" viewBox="0 0 32 18"><defs><style>.a{fill:#090000;}</style></defs><g transform="translate(0)"><path class="a" d="M31.95,13.417a4.5,4.5,0,0,1-.415,2.136,3.731,3.731,0,0,1-1.814,1.775,9.266,9.266,0,0,1-3.214.463c-.272,0-.531,0-.778-.013H21.142a2.969,2.969,0,0,1-.311-.013,3.31,3.31,0,0,0-.337-.013h-.039c-.35.013-.7,0-.985-.013a.155.155,0,0,1-.143-.154V15.038c0-.129.013-.476.013-.759v-.425l-.013-3.705V5.71a2.465,2.465,0,0,0,0-.437c-.013-.154,0-.322,0-.5.013-.309.013-.63.013-.913V3.832a.165.165,0,0,1,.143-.154h6.48c.311-.013.687,0,1.024.013a5.282,5.282,0,0,1,.778.064,3.577,3.577,0,0,1,2.488,1.312A4.21,4.21,0,0,1,30.926,6.6a3.185,3.185,0,0,1,.052.926,3.427,3.427,0,0,1-.324,1.184,2.616,2.616,0,0,1-.946,1l-.013.013-.13.064c.181.09.35.18.518.283a4.428,4.428,0,0,1,1.49,1.634,3.925,3.925,0,0,1,.4,1.428v.013a.573.573,0,0,0,.013.142c.013.051-.039.09-.039.129m-9.862,1.994h.246l1.127.013,1.27.013c.376.026.687.013,1.14.013h.285c.22,0,.428-.013.648-.026a2.414,2.414,0,0,0,1.879-.926,2.447,2.447,0,0,0,.324-.888,1.9,1.9,0,0,0-.207-1.248,2.283,2.283,0,0,0-.648-.759.968.968,0,0,0-.156-.09,2.443,2.443,0,0,0-.389-.154,3.161,3.161,0,0,0-.583-.129c-.609-.064-1.529-.077-2.164-.077H23.708c-.609,0-1.166.013-1.568,0h-.065c0,.219-.013.527-.013.695v.18c.013.527.026,1.943.026,2.316v1.068ZM28,6.984c-.35-.952-1.179-1.042-2.514-1.081h-.428c-.518.013-1.5.026-2.229.039l-.726.013V7.486c0,.167,0,.36.013.566v.72h.156c.143,0,.6.013,1.037.013h2.112a6.338,6.338,0,0,0,1.737-.18,1.5,1.5,0,0,0,.557-.322,1.163,1.163,0,0,0,.117-.129l.039-.051a1.25,1.25,0,0,0,.181-.373A2.078,2.078,0,0,0,28,6.984ZM15.219,3.716a.159.159,0,0,0-.143-.09H12.148a.16.16,0,0,0-.13.064A34.3,34.3,0,0,0,9.271,8.463,40.2,40.2,0,0,0,7.6,12.645,40.2,40.2,0,0,0,5.928,8.463,32.372,32.372,0,0,0,3.18,3.69a.16.16,0,0,0-.13-.064H.148a.159.159,0,0,0-.143.09.191.191,0,0,0,.013.167A28.432,28.432,0,0,1,3.556,9.621a36.868,36.868,0,0,1,2.67,8.041.143.143,0,0,0,.156.116H8.843A.167.167,0,0,0,9,17.662a37.373,37.373,0,0,1,2.683-8.041,29.344,29.344,0,0,1,3.525-5.738A.157.157,0,0,0,15.219,3.716ZM5.5,1.67A.931.931,0,0,0,6.42.744h0A.921.921,0,0,0,4.58.667V.731a.934.934,0,0,0,.92.939Zm4.238,0a.923.923,0,0,0,.92-.926A.921.921,0,0,0,8.818.667V.731a.926.926,0,0,0,.92.939Zm12.674,0a.92.92,0,0,0,.907-.926.921.921,0,0,0-1.84-.077V.731a.929.929,0,0,0,.933.939Zm4.225,0a.931.931,0,0,0,.92-.926.921.921,0,0,0-1.84-.077V.731a.934.934,0,0,0,.92.939Z" transform="translate(0.009 0.209)"/></g></svg>