<svg xmlns="http://www.w3.org/2000/svg" width="20" height="20" viewBox="0 0 20 20"><defs><style>.a{fill:none;}.b{fill:#2c2c2c;fill-rule:evenodd;}</style></defs><rect class="a" width="20" height="20"/><path class="b" d="M8.642,10.37A2.125,2.125,0,0,0,10.8,8.3a2.162,2.162,0,0,0-4.321,0A2.125,2.125,0,0,0,8.642,10.37Zm0-6.222A4.25,4.25,0,0,1,12.963,8.3a4.25,4.25,0,0,1-4.321,4.148A4.25,4.25,0,0,1,4.321,8.3,4.25,4.25,0,0,1,8.642,4.148Zm6.481,11.407H2.16a2.177,2.177,0,0,1-1.512-.622A2.008,2.008,0,0,1,0,13.481V4.148A2.125,2.125,0,0,1,2.16,2.074H3.889L5.509.519A1.826,1.826,0,0,1,6.806,0h3.781a1.768,1.768,0,0,1,1.188.519L13.4,2.074h1.728a2.125,2.125,0,0,1,2.16,2.074v9.333A2.125,2.125,0,0,1,15.123,15.556Z" transform="translate(1.358 2.716)"/></svg>