<svg xmlns="http://www.w3.org/2000/svg" width="20" height="20" viewBox="0 0 20 20"><defs><style>.a{fill:none;}.b{fill:#2c2c2c;}</style></defs><rect class="a" width="20" height="20"/><g transform="translate(2.5 2.5)"><rect class="a" width="15" height="15"/><path class="b" d="M14.906,13.594,11.812,10.5a6.419,6.419,0,0,0,1.313-3.937A6.522,6.522,0,0,0,6.563,0,6.522,6.522,0,0,0,0,6.563a6.522,6.522,0,0,0,6.563,6.563A6.419,6.419,0,0,0,10.5,11.812l3.094,3.094ZM1.875,6.563A4.642,4.642,0,0,1,6.563,1.875,4.642,4.642,0,0,1,11.25,6.563,4.642,4.642,0,0,1,6.563,11.25,4.642,4.642,0,0,1,1.875,6.563Z"/></g></svg>