<svg xmlns="http://www.w3.org/2000/svg" width="24" height="24" viewBox="0 0 24 24"><defs><style>.a{fill:none;}.b{fill:#2c2c2c;}</style></defs><rect class="a" width="24" height="24"/><g transform="translate(1.185 2.963)"><path class="b" d="M923.762,451.226H911.133l-1.226-3.77h-4.351v1.894h2.889l3.22,11.162a1.069,1.069,0,0,0,1.043.777h9.138a1.066,1.066,0,0,0,1.042-.777l2.182-7.688A1.3,1.3,0,0,0,923.762,451.226Z" transform="translate(-905.557 -447.456)"/><path class="b" d="M911.2,462.471a1.729,1.729,0,1,1,1.712-1.743v.014a1.718,1.718,0,0,1-1.708,1.729Z" transform="translate(-903.456 -442.915)"/><path class="b" d="M918.146,462.471a1.729,1.729,0,1,1,1.712-1.743v.014a1.718,1.718,0,0,1-1.708,1.729Z" transform="translate(-902.329 -442.915)"/></g></svg>