<svg xmlns="http://www.w3.org/2000/svg" width="160" height="16.284" viewBox="0 0 160 16.284"><g transform="translate(-1)"><g transform="translate(1)"><path d="M82.5,206.446V208.4l-.068.068a.409.409,0,0,1-.271.068H71.647a.614.614,0,0,1-.339-.068c-.068-.068-.2-.135-.136-.811V193.474a.146.146,0,0,1,.136-.135H82.1a.146.146,0,0,1,.136.135v1.756a.934.934,0,0,1,0,.608l-.136.135H74.226v2.837c.543.068,2.986.068,4.139.068h3.121a.146.146,0,0,1,.136.135v2.229l-.068.135-.136.068h-7.26v4.526h7.871a.515.515,0,0,1,.271.068c.2.068.2.338.136.473m-42.884,1.824v.135l-.136.068h-2.85l-.136-.068a6.561,6.561,0,0,1-.339-.743l-.271-.743c-.136-.405-.339-.878-.475-1.216h-5.9a2.519,2.519,0,0,0-.271.743c-.068.27-.2.54-.271.743l-.2.473c0,.068-.068.135-.068.2l-.2.608c0,.068-.068.068-.136.068H25.506l-.136-.068V208.4c.136-.338.407-.946.475-1.216a4.679,4.679,0,0,1,.339-.878l.2-.608a1.173,1.173,0,0,1,.2-.473c.136-.338.271-.743.339-.946.136-.405.271-.743.407-1.081,0-.068.339-.811.407-1.148l.068-.135a4.638,4.638,0,0,1,.2-.54c.068-.135.2-.54.339-.878l.068-.135a2.141,2.141,0,0,0,.2-.608c.136-.405.271-.743.407-1.148s.271-.743.407-1.081c.475-1.419,1.018-2.837,1.561-4.256,0-.068.068-.068.136-.068h.882a16.62,16.62,0,0,1,1.832.068.146.146,0,0,1,.136.135c.068.27.679,1.689.95,2.5a1.823,1.823,0,0,1,.2.54l.068.135c.136.27.2.608.339.878a6.284,6.284,0,0,1,.339.946c.611,1.486,1.7,4.324,2.1,5.54,0,.068.407,1.081.543,1.419a3.321,3.321,0,0,0,.271.608c.136.27.2.608.271.743s.339.946.407,1.149C39.417,208,39.552,208.337,39.552,208.337Zm-5.157-5.2c-.136-.405-.2-.676-.339-1.013l-.068-.135v-.135l-.271-.743c-.136-.405-.339-.878-.475-1.284-.2-.54-.407-1.148-.611-1.689l-.271-.946c-.068.135-.068.27-.136.405a1.268,1.268,0,0,0-.136.54,1.657,1.657,0,0,1-.271.743h0l-.2.608c0,.135-.068.2-.136.338a6.362,6.362,0,0,0-.2.608l-.271.608a1.714,1.714,0,0,0-.136.473c0,.068-.068.135-.068.2s-.068.2-.068.27a1.249,1.249,0,0,0-.136.473,3.171,3.171,0,0,1-.2.608l-.068.067v.068H34.4ZM154.7,207.256l-.407-.743-.611-1.013-.407-.743c0-.068-.068-.068-.068-.2-.136-.27-.407-.743-.475-.878a2.934,2.934,0,0,0-.271-.473,9.993,9.993,0,0,0-.543-.878l-.068-.135-.271-.473c-.136-.2-.746-1.351-.95-1.756l-.2-.338a3.637,3.637,0,0,1-.475-.878l.136-.135.068-.068a1.793,1.793,0,0,0,.339-.405c.068-.135.2-.2.271-.338.068-.068.136-.2.271-.27l.136-.2.2-.2c.136-.135.2-.27.339-.405.068-.068.339-.405.611-.676a7.429,7.429,0,0,0,.746-.811,6.12,6.12,0,0,1,.679-.743c.271-.27.611-.676.882-1.013v-.2c0-.067-.068-.067-.136-.067H151.1l-.136.067-.2.2-.2.2-.136.2c-.136.135-.271.338-.407.473a6.759,6.759,0,0,0-.611.676l-.95,1.081h0a4.374,4.374,0,0,1-.543.608l-.271.338c-.611.676-1.154,1.351-1.7,1.892v-5.607a.146.146,0,0,0-.136-.135c-.136,0-.2-.068-.339-.068H143.03a.146.146,0,0,0-.136.135v1.892c-.068.405,0,2.162,0,2.364V208.2a.146.146,0,0,0,.136.135h2.646a.146.146,0,0,0,.136-.135v-1.419h0V203.2l.068-.068.068-.068a1.794,1.794,0,0,1,.339-.405c.136-.135.2-.27.339-.405l.136-.2a9.6,9.6,0,0,1,.814-.878c.136.2.271.473.407.676.136.27.271.473.407.743a3.977,3.977,0,0,1,.271.54,2.245,2.245,0,0,0,.2.405l.136.27.814,1.419c.2.338.679,1.284.746,1.419s.271.473.407.676l.2.27.136.2a2.37,2.37,0,0,0,.339.54l.136.068h2.782c.2,0,.543,0,.611-.27v-.068a2.123,2.123,0,0,0-.475-.811Zm14.792-4.121-.068-.2c-.068-.135-.068-.338-.136-.473-.746-1.757-2.307-2.365-4.275-3.04-.136-.068-.339-.068-.475-.135a.967.967,0,0,1-.407-.135c-.543-.2-1.221-.405-1.832-.676a4.056,4.056,0,0,1-1.018-.608,1.4,1.4,0,0,1-.407-.676,1.793,1.793,0,0,1,.2-.811,2.334,2.334,0,0,1,2.036-.811,5.036,5.036,0,0,1,2.85,1.148l.136.135a4.083,4.083,0,0,1,.543.54l.068.068.271.27a.128.128,0,0,0,.2,0,7.667,7.667,0,0,1,.882-.676l.543-.405.271-.2.271-.2.068-.135a.515.515,0,0,0-.136-.338V195.7a2.907,2.907,0,0,0-.611-.676l-.068-.068h0l-.068-.068-.136-.068a6.577,6.577,0,0,0-3.257-1.689,5.188,5.188,0,0,0-1.425-.2h-.814l-.95.068a5.378,5.378,0,0,0-1.968.743,4.468,4.468,0,0,0-1.9,4.391v.135a1.249,1.249,0,0,0,.136.473,4.5,4.5,0,0,0,1.7,2.027h.068l.068.068.068.068a3.65,3.65,0,0,0,.746.338l.136.068.136.068c.814.338,1.7.676,2.578.946l.611.2h.068c.95.338,1.968.608,2.307,1.554a.854.854,0,0,1,.068.405,1.408,1.408,0,0,1-.543,1.081,2.489,2.489,0,0,1-1.9.608,5.336,5.336,0,0,1-3.189-1.081,3.559,3.559,0,0,1-.814-.946,1.027,1.027,0,0,0-.271-.405l-.2-.27-.136-.068h-.136l-.271.2-.271.135a5.98,5.98,0,0,1-.679.405,5.971,5.971,0,0,0-.679.405l-.136.068a2.061,2.061,0,0,0-.475.338.209.209,0,0,0-.068.135,2.735,2.735,0,0,0,.339.608l.068.067a8.162,8.162,0,0,0,1.425,1.621l.136.135.068.068a.353.353,0,0,0,.271.135l.136.068.2.135a8.128,8.128,0,0,0,1.764.743,10.855,10.855,0,0,0,2.918.405,7.774,7.774,0,0,0,2.782-.473,4.626,4.626,0,0,0,2.443-2.229,3.9,3.9,0,0,0,.339-.946c.068-.2.068-.338.136-.541a3.274,3.274,0,0,0,.068-.811c-.2-.405-.271-.676-.407-.946Zm-46.887-2.567a11.9,11.9,0,0,1-.068,1.554c0,.27-.068.54-.068.676a8.019,8.019,0,0,1-.679,2.162,7.468,7.468,0,0,1-2.646,2.973,1.365,1.365,0,0,1-.543.27,11.719,11.719,0,0,1-1.425.473c-.2.068-.475.068-.679.135l-.271.068h-1.086a7.288,7.288,0,0,1-2.918-.608,6.969,6.969,0,0,1-3.936-3.783,5.926,5.926,0,0,1-.339-1.013c-.068-.135-.068-.338-.136-.473h0l-.068-.2c0-.068-.068-.135-.068-.27a4.527,4.527,0,0,1-.068-1.351V200.5a9.117,9.117,0,0,1,.136-1.351l.068-.2a7.325,7.325,0,0,1,.475-1.621,7.143,7.143,0,0,1,4.275-4.121,9.635,9.635,0,0,1,1.357-.27l.271-.068h0l.882-.068h0a7.2,7.2,0,0,1,6.039,3.108,7.592,7.592,0,0,1,.814,1.419,6.071,6.071,0,0,1,.407,1.486h0l.068.338a4.765,4.765,0,0,1,.068.946A.726.726,0,0,1,122.606,200.568Zm-4.411-3.851a4.162,4.162,0,0,0-3.257-1.284l-.475.068c-.339.068-.679.2-1.018.27a1.486,1.486,0,0,0-.339.2c-.136.135-.339.2-.475.338A4.339,4.339,0,0,0,111.41,198c-1.018,2.7-.543,5.742,1.154,7.161.068.068.136.068.136.135l.2.135a4.052,4.052,0,0,0,2.646.743,4.2,4.2,0,0,0,3.732-3.04,8.517,8.517,0,0,0,.271-1.756,6.664,6.664,0,0,0-1.357-4.662Zm21.713,3.851a5.973,5.973,0,0,1-.068,1.554c0,.27-.068.54-.068.676a8.021,8.021,0,0,1-.679,2.162,7.469,7.469,0,0,1-2.646,2.973,1.365,1.365,0,0,1-.543.27,11.72,11.72,0,0,1-1.425.473c-.2.068-.475.068-.746.135l-.271.068h-1.086a7.288,7.288,0,0,1-2.918-.608,6.969,6.969,0,0,1-3.936-3.783c-.136-.338-.2-.676-.339-1.013-.068-.135-.068-.338-.136-.473h0a.247.247,0,0,0-.068-.2c-.068-.068,0-.135-.068-.27a4.525,4.525,0,0,1-.068-1.351V200.5a4.576,4.576,0,0,1,.136-1.351l.068-.2a7.327,7.327,0,0,1,.475-1.621A7.143,7.143,0,0,1,129.8,193.2a9.635,9.635,0,0,1,1.357-.27l.2-.068h0l.882-.068h0a7.2,7.2,0,0,1,6.039,3.108,7.592,7.592,0,0,1,.814,1.419,6.07,6.07,0,0,1,.407,1.486h0l.068.338a4.764,4.764,0,0,1,.068.946Zm-4.478-3.851a4.162,4.162,0,0,0-3.257-1.284l-.475.068c-.339.068-.679.2-1.018.27a1.486,1.486,0,0,0-.339.2,2.87,2.87,0,0,0-.475.338A4.34,4.34,0,0,0,128.645,198c-1.018,2.7-.543,5.742,1.154,7.161.068.068.136.068.136.135l.2.135a4.081,4.081,0,0,0,6.31-2.3,5.544,5.544,0,0,0,.271-1.756,5.772,5.772,0,0,0-1.289-4.662Zm-67.651-.2v-2.837a.854.854,0,0,0-.068-.405l-.136-.068H64.862c-.068,0-.136.068-.136.2V203a2.759,2.759,0,0,1-.068.743,2.008,2.008,0,0,1-.543,1.216,3.191,3.191,0,0,1-1.9.946,2.319,2.319,0,0,1-.679.068h-.2a4.019,4.019,0,0,1-.95-.135,2.652,2.652,0,0,1-1.968-1.284A3.949,3.949,0,0,1,58.144,203v-1.081h0v-4.256h0v-4.256a.146.146,0,0,0-.136-.135H55.294l-.136.068-.068.135v1.216h0v8.242a8.267,8.267,0,0,0,.136,1.824,5.757,5.757,0,0,0,.611,1.621c.882,1.486,2.646,2.365,5.157,2.567h.543a6.1,6.1,0,0,0,1.561-.135l.407-.068.339-.068h.068A9.634,9.634,0,0,0,65.4,208.2a5.962,5.962,0,0,0,.679-.405,4.463,4.463,0,0,0,1.561-2.162,2.15,2.15,0,0,0,.2-.946v-.2c0-.2.068-.405.068-.608v-5.945A4.806,4.806,0,0,1,67.78,196.514ZM52.852,207.8v-1.892a.146.146,0,0,0-.136-.135H44.845V200.5c0-.405.068-4.324,0-4.594v-2.365c0-.068-.068-.2-.136-.2H42.063l-.136.068-.068.135v7.972h0V208.4a.146.146,0,0,0,.136.135H52.716c.2,0,.2-.338.2-.608Zm52.587-3.986a4.383,4.383,0,0,1-.475,2.3A4.246,4.246,0,0,1,103,208.067a10.591,10.591,0,0,1-3.528.473h-7.8a.146.146,0,0,1-.136-.135V193.339h0a.146.146,0,0,1,.136-.135h8.346a4.2,4.2,0,0,1,.882.068,4.136,4.136,0,0,1,2.782,1.419,4.764,4.764,0,0,1,.746,1.689,5.092,5.092,0,0,1,.068,1.013,3.984,3.984,0,0,1-.339,1.284,2.778,2.778,0,0,1-1.086,1.081h0l-.136.068a1.478,1.478,0,0,1,.543.338,5.016,5.016,0,0,1,1.629,1.756,4.144,4.144,0,0,1,.475,1.554l-.136.338Zm-10.857,2.162h5.293a2.637,2.637,0,0,0,2.1-1.013,2.263,2.263,0,0,0,.339-.946,2.287,2.287,0,0,0-.2-1.351,2.151,2.151,0,0,0-.746-.811.25.25,0,0,0-.2-.068l-.407-.2a1.988,1.988,0,0,0-.611-.135c-.679-.068-1.7-.068-2.375-.068H94.65v.946c0,.608.068,2.094,0,2.5v.946a.248.248,0,0,0-.068.2Zm6.514-9.188c-.407-1.013-1.289-1.149-2.782-1.216h-.475l-2.443.068h-.814v3.108h3.664a9.081,9.081,0,0,0,1.9-.2,2.755,2.755,0,0,0,.611-.338l.136-.135.068-.068.2-.405a3.275,3.275,0,0,0-.068-.811Zm-74.368-3.513c0-.068-.068-.068-.136-.068H23.335l-.136.068a36.087,36.087,0,0,0-3.053,5.2c-.679,1.486-1.289,3.04-1.832,4.594-.543-1.554-1.154-3.108-1.832-4.594a36.088,36.088,0,0,0-3.053-5.2l-.136-.068H10.036a.237.237,0,0,0-.136.068v.2a33.659,33.659,0,0,1,3.936,6.283,44.7,44.7,0,0,1,2.986,8.783.146.146,0,0,0,.136.135h2.714a.146.146,0,0,0,.136-.135,43.244,43.244,0,0,1,2.986-8.783,30.471,30.471,0,0,1,3.936-6.283Z" transform="translate(-9.9 -192.796)"/></g></g></svg>