<svg xmlns="http://www.w3.org/2000/svg" width="14" height="20.004" viewBox="0 0 14 20.004"><path d="M15.824,1.55,13.752-.522c1.3-1.62,1.3-3.48,1.3-7.093,0-4.011,0-5.871-1.78-7.651a6.7,6.7,0,0,0-4.835-1.966A6.7,6.7,0,0,0,3.6-15.266c-1.78,1.78-1.78,3.639-1.78,7.651s0,5.871,1.78,7.651A6.7,6.7,0,0,0,8.439,2,6.6,6.6,0,0,0,12.5.673l2.1,2.1ZM13.035-7.615c0,3.028-.08,4.49-.77,5.605L9.953-4.321,8.731-3.1,11.122-.708a4.357,4.357,0,0,1-2.683.9A4.576,4.576,0,0,1,5.171-1.16c-1.2-1.222-1.328-2.5-1.328-6.455s.133-5.233,1.328-6.455a4.576,4.576,0,0,1,3.268-1.355,4.576,4.576,0,0,1,3.268,1.355C12.9-12.849,13.035-11.574,13.035-7.615Z" transform="translate(-1.824 17.232)"/></svg>