<svg xmlns="http://www.w3.org/2000/svg" width="150" height="30.001" viewBox="0 0 150 30.001"><defs><style>.a{fill:#fff;}.b,.d{fill:#0095d9;}.c,.d{stroke:none;}</style></defs><g transform="translate(-30.3 -190.716)"><g class="a" transform="translate(30.3 190.716)"><path class="c" d="M 74.99980926513672 29.50060081481934 C 74.53775024414062 29.50060081481934 74.10873413085938 29.29252052307129 73.82279205322266 28.92970085144043 L 69.67771148681641 23.67531967163086 L 69.52757263183594 23.48500061035156 L 69.28515625 23.48500061035156 L 3.99961256980896 23.48500061035156 C 2.069912672042847 23.48500061035156 0.4999925792217255 21.91508102416992 0.4999925792217255 19.98540115356445 L 0.4999925792217255 4.000500202178955 C 0.4999925792217255 2.07032036781311 2.069912672042847 0.5000004172325134 3.99961256980896 0.5000004172325134 L 145.9998168945312 0.5000004172325134 C 147.9299926757812 0.5000004172325134 149.5003051757812 2.07032036781311 149.5003051757812 4.000500202178955 L 149.5003051757812 19.98540115356445 C 149.5003051757812 21.91508102416992 147.9299926757812 23.48500061035156 145.9998168945312 23.48500061035156 L 80.71514892578125 23.48500061035156 L 80.47273254394531 23.48500061035156 L 80.32259368896484 23.67531967163086 L 76.17763519287109 28.92951965332031 C 75.89129638671875 29.29244041442871 75.46199035644531 29.50060081481934 74.99980926513672 29.50060081481934 Z"/><path class="d" d="M 74.99980926513672 29.00060081481934 C 75.30792999267578 29.00060081481934 75.59416961669922 28.86180114746094 75.78509521484375 28.61984062194824 L 79.9300537109375 23.36564064025879 L 80.23033142089844 22.98500061035156 L 80.71514892578125 22.98500061035156 L 145.9998168945312 22.98500061035156 C 147.654296875 22.98500061035156 149.0003051757812 21.63937950134277 149.0003051757812 19.98540115356445 L 149.0003051757812 4.000500202178955 C 149.0003051757812 2.346020460128784 147.654296875 1.000000357627869 145.9998168945312 1.000000357627869 L 3.99961256980896 1.000000357627869 C 2.345612525939941 1.000000357627869 0.9999926090240479 2.346020460128784 0.9999926090240479 4.000500202178955 L 0.9999926090240479 19.98540115356445 C 0.9999926090240479 21.63937950134277 2.345612525939941 22.98500061035156 3.99961256980896 22.98500061035156 L 69.28515625 22.98500061035156 L 69.76997375488281 22.98500061035156 L 70.07025146484375 23.36564064025879 L 74.21549224853516 28.62020111083984 C 74.40601348876953 28.86194038391113 74.69189453125 29.00060081481934 74.99980926513672 29.00060081481934 M 74.99980926513672 30.00060081481934 C 74.41493225097656 30.00060081481934 73.83015441894531 29.74679946899414 73.43009185791016 29.23920059204102 L 69.28515625 23.98500061035156 L 3.99961256980896 23.98500061035156 C 1.791012644767761 23.98500061035156 -7.412109425786184e-06 22.19490051269531 -7.412109425786184e-06 19.98540115356445 L -7.412109425786184e-06 4.000500202178955 C -7.412109425786184e-06 1.791000366210938 1.791012644767761 4.07409658009783e-07 3.99961256980896 4.07409658009783e-07 L 145.9998168945312 4.07409658009783e-07 C 148.2093200683594 4.07409658009783e-07 150.0003051757812 1.791000366210938 150.0003051757812 4.000500202178955 L 150.0003051757812 19.98540115356445 C 150.0003051757812 22.19490051269531 148.2093200683594 23.98500061035156 145.9998168945312 23.98500061035156 L 80.71514892578125 23.98500061035156 L 76.5701904296875 29.23920059204102 C 76.16969299316406 29.74679946899414 75.58469390869141 30.00060081481934 74.99980926513672 30.00060081481934 Z"/></g><path class="b" d="M-65.208.144a10.059,10.059,0,0,1-.1-1.56V-7.488a18.082,18.082,0,0,1,.1-1.98,8.727,8.727,0,0,1-1.224.06h-1.1a6.669,6.669,0,0,1-1.2-.072v1.524A10.672,10.672,0,0,1-67.5-8.028h.576v6.612a9.961,9.961,0,0,1-.1,1.56Zm3.876-2.136a3.54,3.54,0,0,0,.756,1.308A3.512,3.512,0,0,0-57.84.36a3.262,3.262,0,0,0,3.612-3.42,2.95,2.95,0,0,0-.852-2.256,3.083,3.083,0,0,0-2.34-.9,2.952,2.952,0,0,0-2.052.732q.054-.36.072-.5l.192-2.1h2.82a11.511,11.511,0,0,1,1.656.1V-9.5a9.137,9.137,0,0,1-1.668.1h-2.952c-.636,0-.912-.012-1.272-.036-.012.6-.036,1.008-.048,1.224l-.276,2.976c-.024.336-.036.4-.156,1.248l1.5.144a1.376,1.376,0,0,1,.36-.54,2.11,2.11,0,0,1,1.488-.552,1.789,1.789,0,0,1,1.884,1.932,1.861,1.861,0,0,1-1.968,1.98,1.818,1.818,0,0,1-1.476-.612,1.643,1.643,0,0,1-.36-.7Zm15.864-5.64v1.14H-46.7a9.231,9.231,0,0,1-1.332-.072v1.272c.372-.036.816-.06,1.32-.06h2.844v1.02h-2.844a8.9,8.9,0,0,1-1.308-.06v1.308a10.747,10.747,0,0,1,1.284-.072h2.868V-.6c0,.264-.072.324-.444.324a10.691,10.691,0,0,1-1.344-.1,3.093,3.093,0,0,1,.288,1.26c.828.012.828.012.936.012a3.363,3.363,0,0,0,1.32-.192c.36-.168.48-.456.48-1.152V-3.156h.156a6.525,6.525,0,0,1,1.188.072V-4.392a7.319,7.319,0,0,1-1.188.06h-.156v-1.02h.2a7.8,7.8,0,0,1,1.176.06V-6.564a8.857,8.857,0,0,1-1.308.072H-44.22v-1.14h1.32a8.705,8.705,0,0,1,1.236.06V-8.844a8.847,8.847,0,0,1-1.248.072H-44.22V-9.1a6.38,6.38,0,0,1,.06-.9h-1.38a5.363,5.363,0,0,1,.072.9v.324h-1.056a8.73,8.73,0,0,1-1.248-.072v1.272a10.162,10.162,0,0,1,1.284-.06Zm-6.348,6.42A10.932,10.932,0,0,1-51.888.216h1.26V-.792h1.092v.6h1.224c-.024-.3-.036-.564-.036-1.2V-8.256a9,9,0,0,1,.036-1.188c-.288.024-.5.036-1.044.036h-1.452a10.4,10.4,0,0,1-1.056-.036,11.249,11.249,0,0,1,.048,1.212Zm1.2-7.056h1.08V-5.76h-1.08Zm0,3.612h1.08v2.7h-1.08Zm5.652,3.48a9.209,9.209,0,0,0-1.572-1.836l-1.02.672A9.167,9.167,0,0,1-46.02-.372Zm15.7-.1c-.168-.1-.228-.144-.432-.276A10.733,10.733,0,0,0-32.988-3.24C-33-3.528-33-3.528-33.036-4.692c.468-.024.648-.036.816-.048.9-.084,1.44-.144,1.62-.168.276-.036.576-.072.78-.084l-.036-1.32a8.881,8.881,0,0,1-1.488.264c-1.1.12-1.1.12-1.7.156-.012-.744-.012-.888-.024-1.188,1.056-.06,1.524-.1,2.58-.24a7.506,7.506,0,0,1,.948-.108L-29.6-8.76A16.235,16.235,0,0,1-33.06-8.3a7.439,7.439,0,0,1,.084-1.464H-34.5a8.562,8.562,0,0,1,.06,1.512c-.3.012-.708.024-.9.024a15.779,15.779,0,0,1-3.228-.252l-.012,1.332h.192c.036,0,.132,0,.264.012.8.06,2.352.12,2.94.12.18,0,.372,0,.756-.012.012.684.012,1.092.012,1.2-.336.012-.744.024-.984.024a15.474,15.474,0,0,1-2.8-.2l-.024,1.3c.18,0,.3,0,.456.012,1,.072,1.44.084,2.172.084.252,0,.624-.012,1.2-.024.012.48.012.48.024.648v.264a2.312,2.312,0,0,1,.012.288,6.27,6.27,0,0,0-.8-.048c-2.016,0-3.2.768-3.2,2.076,0,1.188,1.008,1.872,2.76,1.872a3.2,3.2,0,0,0,1.98-.516,1.872,1.872,0,0,0,.672-1.62v-.132a5.34,5.34,0,0,1,.648.3A8.1,8.1,0,0,1-30.084.132ZM-34.332-2.2v.288a1.521,1.521,0,0,1-.144.768,1.246,1.246,0,0,1-1.044.384c-.852,0-1.368-.276-1.368-.72,0-.516.588-.828,1.56-.828A4.212,4.212,0,0,1-34.332-2.2ZM-26.364-6.8a17.419,17.419,0,0,1,1.992-.24c2.6-.192,3.072-.24,4.044-.384A5.306,5.306,0,0,0-22-6.216a4.179,4.179,0,0,0-1.14,2.82A3.211,3.211,0,0,0-21.42-.5a7.219,7.219,0,0,0,2.808.792c.2.036.264.036.408.072l.216-1.632c-.12.012-.228.012-.24.012a7.282,7.282,0,0,1-1.788-.312,2.015,2.015,0,0,1-1.6-1.956,3.9,3.9,0,0,1,2.424-3.2,5.367,5.367,0,0,1,2.376-.648,1.858,1.858,0,0,1,.252.012l-.084-1.524a8.84,8.84,0,0,1-1.38.108c-3.324.156-5.316.264-5.988.3-1.764.12-1.764.12-1.98.12-.06,0-.192,0-.456-.012Zm7.224.648a7.633,7.633,0,0,1,1.068,1.644l.912-.48a6.435,6.435,0,0,0-1.068-1.62Zm3.3.492A6.289,6.289,0,0,0-16.9-7.212l-.876.432a7.954,7.954,0,0,1,1.032,1.6Zm4.884-4.284a12.259,12.259,0,0,1-.36,2.088c-.264.012-.468.012-.612.012a8.332,8.332,0,0,1-1.62-.108v1.368l.636.012c.252.012.324.012.48.012s.216,0,.756-.012A18.461,18.461,0,0,1-12.8-3.744a10.923,10.923,0,0,1-1.164,1.92l1.38.768c.072-.144.072-.144.228-.432.456-.84.564-1.056.84-1.644a23.034,23.034,0,0,0,1.32-3.48c.744-.06,1.476-.144,1.908-.216a2.34,2.34,0,0,1,.384-.06l-.036-1.38a10.293,10.293,0,0,1-1.92.336c.132-.528.192-.768.252-1.056a6.007,6.007,0,0,1,.192-.8Zm7.68,3.12A18.943,18.943,0,0,0-6.66-8.436l-.72,1.164a14.687,14.687,0,0,1,3.456,1.68Zm-.048,5.412a2.149,2.149,0,0,1-.18-.168,4.425,4.425,0,0,0-.42-.324,7.5,7.5,0,0,0-1.9-1.1,12.741,12.741,0,0,1-.108-1.644,4,4,0,0,1,.144-1.212L-7.176-5.94a6.365,6.365,0,0,0-.1,1.212c0,.36.024.828.06,1.38a5.96,5.96,0,0,0-1.116-.108c-1.524,0-2.592.852-2.592,2.064S-9.888.624-8.3.624A2.77,2.77,0,0,0-6.312-.048,1.918,1.918,0,0,0-5.8-1.32c0-.048-.012-.132-.024-.24A7.258,7.258,0,0,1-3.984-.072Zm-3.84-.66s.024.288.024.408C-7.14-1-7.536-.66-8.352-.66c-.744,0-1.176-.288-1.176-.78s.5-.828,1.284-.828A3.025,3.025,0,0,1-7.164-2.076Zm8.712-6.5a21.72,21.72,0,0,0,4.68,1.5L6.72-8.46A18,18,0,0,1,2.244-9.792ZM.588-7.524a4.9,4.9,0,0,1-.072.7C.3-5.412.108-4.08.012-3.336c-.06.456-.06.5-.1.72l1.512.048a2.612,2.612,0,0,1,.54-.516A5.461,5.461,0,0,1,4.956-3.96c1.272,0,2.028.48,2.028,1.284,0,1.02-1.176,1.728-2.868,1.728a9.687,9.687,0,0,1-3.228-.6A5.325,5.325,0,0,1,1.068,0a11.034,11.034,0,0,0,3.06.42A5.184,5.184,0,0,0,7.3-.4,2.922,2.922,0,0,0,8.532-2.712c0-1.536-1.344-2.544-3.384-2.544a5.687,5.687,0,0,0-3.636,1.14L1.488-4.14c.036-.18.036-.18.06-.348a25.392,25.392,0,0,1,.54-2.952ZM16.176-5.7h-2.9a7.6,7.6,0,0,1-1.248-.072V-4.4a11.888,11.888,0,0,1,1.236-.048h6.924V-3.3H13.56A9.025,9.025,0,0,1,12.4-3.348V-2a9.419,9.419,0,0,1,1.152-.048h6.636V-.768H13.176a8.484,8.484,0,0,1-1.248-.06V.54A6.681,6.681,0,0,1,13.236.468H20.16v.588h1.392A10.546,10.546,0,0,1,21.48-.312v-4.44a8.216,8.216,0,0,1,.048-1.008,5.79,5.79,0,0,1-.96.06H17.52V-8.916a7.723,7.723,0,0,1,.072-1.188H16.1a8.168,8.168,0,0,1,.072,1.188ZM12.06-8.88a13.65,13.65,0,0,1,1.848,2.988l1.176-.7a14.66,14.66,0,0,0-1.872-2.94Zm8.28-.684a9.942,9.942,0,0,1-1.716,2.988l1.116.7a14.34,14.34,0,0,0,1.872-3.1ZM25.38-.588A12.587,12.587,0,0,1,25.308.864h1.428V.144h5.58v.72h1.452A12.157,12.157,0,0,1,33.7-.588V-8.34a10.844,10.844,0,0,1,.06-1.224,9.656,9.656,0,0,1-1.3.06H26.652a10.593,10.593,0,0,1-1.332-.06c.036.4.06.816.06,1.284Zm1.356-7.644h5.58v2.784h-5.58Zm0,4.044h5.58v3.072h-5.58Zm16.476-.948h2.3a8.482,8.482,0,0,1,1.14.048v-.984a7.1,7.1,0,0,1-1.14.06h-2.3v-.576h2.3a6.981,6.981,0,0,1,1.14.048v-.984a7.1,7.1,0,0,1-1.14.06h-2.3V-8.04h2.916a7.531,7.531,0,0,1,1,.048V-9.108a7.708,7.708,0,0,1-1.176.06h-2.58a11.815,11.815,0,0,0,.624-1.044l-1.356-.168a4.856,4.856,0,0,1-.624,1.212H39.864a11.128,11.128,0,0,0,.66-1.008l-1.392-.228a3.893,3.893,0,0,1-.384.78,7.633,7.633,0,0,1-2.2,2.316,4.722,4.722,0,0,1,.624,1.176,6.622,6.622,0,0,0,1.1-1.044c-.024.336-.036.66-.036,1.044v1.488a7.288,7.288,0,0,1-.048.96c.288-.024.552-.036,1.02-.036h2.376v.636H38.22a8.853,8.853,0,0,1-1.356-.06v1.212a8.507,8.507,0,0,1,1.356-.072h2.316a5.351,5.351,0,0,1-1.3.768,9.473,9.473,0,0,1-2.592.768,5.535,5.535,0,0,1,.672,1.2A11.089,11.089,0,0,0,39.456.108a6.893,6.893,0,0,0,2.172-1.464c-.024.288-.036.516-.036.792V.144A3.408,3.408,0,0,1,41.52,1h1.428a3.185,3.185,0,0,1-.072-.864v-.7c0-.132-.012-.444-.036-.792A7.151,7.151,0,0,0,44.784-.012a11.922,11.922,0,0,0,2.4.876c.048-.1.084-.18.108-.228.072-.168.12-.276.132-.3a3.768,3.768,0,0,1,.444-.708A10.182,10.182,0,0,1,43.9-1.884h2.388a8.672,8.672,0,0,1,1.368.072V-3.024a9.039,9.039,0,0,1-1.368.06H42.876V-3.6h3.168a7.271,7.271,0,0,1,1.152.06V-4.584a9.642,9.642,0,0,1-1.164.048h-2.82Zm-1.248,0v.6H39.492v-.6Zm0-.876H39.492v-.576h2.472Zm0-1.452H39.492V-8.04h2.472ZM52.38-9.24H50.916a10.257,10.257,0,0,1-1.32-.072v1.284a9.507,9.507,0,0,1,1.32-.072H52.38v.18a3.111,3.111,0,0,1-.048.576h1.332a2.858,2.858,0,0,1-.036-.6V-8.1H56.16v.24a3.876,3.876,0,0,1-.036.576h1.32a4.609,4.609,0,0,1-.036-.6V-8.1h1.644a7.865,7.865,0,0,1,1.308.072V-9.312a9.928,9.928,0,0,1-1.308.072H57.408v-.252a4.669,4.669,0,0,1,.036-.612H56.112a3.417,3.417,0,0,1,.048.612v.252H53.628v-.252a4.668,4.668,0,0,1,.036-.612H52.332a3.372,3.372,0,0,1,.048.6Zm5.664,3.516v5.04c0,.276-.084.336-.48.336a10.274,10.274,0,0,1-1.548-.144,4.349,4.349,0,0,1,.312,1.32c.456.036.768.048,1.152.048A3.128,3.128,0,0,0,58.9.672,1.149,1.149,0,0,0,59.364-.42v-5.3c.516.012.72.012,1.056.048V-6.948a10.245,10.245,0,0,1-1.38.072H54.5a10.839,10.839,0,0,1-1.38-.06v1.26a13.494,13.494,0,0,1,1.38-.048ZM54.3-.48v-.768h1.86a8.59,8.59,0,0,1,.912.036,7.165,7.165,0,0,1-.036-.864V-3.924a9.5,9.5,0,0,1,.036-1,7.25,7.25,0,0,1-1.02.048H54.108a7.67,7.67,0,0,1-1.032-.048c.024.252.036.528.036,1.032v2.5a6.864,6.864,0,0,1-.048.912Zm0-3.324h1.572v1.488H54.3ZM50.808-.324a9.368,9.368,0,0,1-.072,1.344h1.428a12.44,12.44,0,0,1-.072-1.344v-4.8a12.432,12.432,0,0,0,.756-1.5,1.422,1.422,0,0,1,.18-.384l-1.236-.528A4.586,4.586,0,0,1,51.3-6.264a7.052,7.052,0,0,1-2.04,2.412,5.588,5.588,0,0,1,.588,1.3,6.2,6.2,0,0,0,1-1.068c-.024.576-.036.9-.036,1.3ZM65.292-2.412a4.285,4.285,0,0,1-.024-.5c0-.168,0-.168.024-.864l.168-4.08c.024-.516.072-1.14.108-1.464H63.6c.048.336.084.936.108,1.464l.168,4.08c.036.72.036.72.036.852s-.012.264-.024.516ZM65.46.216V-1.428H63.72V.216Z" transform="translate(107.036 208)"/></g></svg>