<svg xmlns="http://www.w3.org/2000/svg" width="20" height="16.25" viewBox="0 0 20 16.25"><defs><style>.a{fill:#fff;}</style></defs><g transform="translate(0 -4)"><path class="a" d="M81.383,114.65a11.6,11.6,0,0,0,11.677-11.668c0-.176,0-.352-.008-.528a8.356,8.356,0,0,0,2.049-2.127,8.322,8.322,0,0,1-2.361.648A4.126,4.126,0,0,0,94.548,98.7a8.167,8.167,0,0,1-2.609.992,4.106,4.106,0,0,0-7.1,2.807,4.53,4.53,0,0,0,.1.936,11.657,11.657,0,0,1-8.459-4.286,4.115,4.115,0,0,0,1.273,5.478,4.153,4.153,0,0,1-1.857-.512v.056A4.11,4.11,0,0,0,79.19,108.2a4.131,4.131,0,0,1-1.849.072,4.1,4.1,0,0,0,3.834,2.847,8.235,8.235,0,0,1-5.1,1.759,7.905,7.905,0,0,1-.976-.056,11.681,11.681,0,0,0,6.283,1.831" transform="translate(-75.1 -94.4)"/></g></svg>